<svg width="27" height="25" viewBox="0 0 27 25" fill="none" xmlns="http://www.w3.org/2000/svg">
<path id="Union" fill-rule="evenodd" clip-rule="evenodd" d="M24.4271 6.6567H24.2637V6.5759H5.51056C3.38134 6.5759 1.66159 8.29565 1.66159 10.4241V13.9455L0.105622 8.04924C-0.303843 6.73895 0.515087 5.26488 1.90727 4.93731L20.0868 0.10562C21.3971 -0.303845 22.8715 0.515085 23.1991 1.90763L24.4271 6.6567ZM5.42831 7.96705H24.2637C25.6559 7.96705 26.8027 9.11355 26.802 10.5065V22.4614C26.802 23.8532 25.6559 25.0001 24.2637 25.0001H5.42831C4.03649 25.0001 2.88999 23.8543 2.88999 22.4614V10.5057C2.88999 9.11392 4.03612 7.96705 5.42831 7.96705ZM24.2644 23.281C24.6739 23.281 25.083 22.9542 25.083 22.4625L25.1653 22.4621V19.4328H4.61047V22.4621C4.61047 22.8719 4.93768 23.281 5.42904 23.281H24.2644ZM4.60974 13.5361H25.083L25.0823 10.5065C25.0823 10.097 24.7554 9.68753 24.2637 9.68753H5.42831C5.01921 9.68753 4.60974 10.0147 4.60974 10.5065V13.5361Z" fill="white"/>
</svg>
