<svg width="35" height="23" viewBox="0 0 35 23" fill="none" xmlns="http://www.w3.org/2000/svg">
<path id="Union" fill-rule="evenodd" clip-rule="evenodd" d="M31.1013 9.09167L31.8403 9.09799C33.5475 9.11184 34.9232 10.499 34.9232 12.2058V17.3851C34.9232 17.8206 34.5699 18.174 34.1333 18.174H33.3368C33.2102 14.7768 30.4265 12.0468 26.9993 12.0468C23.5722 12.0468 20.7886 14.7769 20.6621 18.174H15.3491C15.1132 18.174 14.8898 18.0688 14.7402 17.8867C14.5905 17.705 14.5307 17.4656 14.5744 17.234L17.8046 0.638447C17.8761 0.267766 18.2007 0 18.5784 0H26.7069C27.0397 0 27.3366 0.207963 27.4494 0.520332L30.3644 8.57134C30.4773 8.88172 30.7707 9.08883 31.1013 9.09167ZM27.1434 6.82774C27.2873 6.82774 27.4219 6.75977 27.5082 6.64535C27.5945 6.53028 27.6211 6.38177 27.5809 6.24419L26.3743 2.14475C26.3178 1.95064 26.1395 1.81782 25.9381 1.81782H19.6398C19.4177 1.81782 19.2277 1.97898 19.1907 2.19809L18.5082 6.29761C18.4862 6.42936 18.5231 6.56459 18.6094 6.66644C18.6957 6.76914 18.8224 6.82774 18.9571 6.82774H27.1434ZM8.25201 3.19293H13.1883C13.84 3.19293 14.3673 3.72072 14.3673 4.37167C14.3673 5.02276 13.84 5.55069 13.1883 5.55069H8.25201C7.60028 5.55069 7.07306 5.02276 7.07306 4.37167C7.07306 3.72072 7.60028 3.19293 8.25201 3.19293ZM12.0094 7.90827H4.7155C4.06377 7.90827 3.53647 8.4362 3.53647 9.08736C3.53647 9.73824 4.06377 10.2661 4.7155 10.2661H12.0095C12.661 10.2661 13.1883 9.73824 13.1883 9.08736C13.1883 8.43613 12.661 7.90827 12.0094 7.90827ZM10.8307 12.6237H1.17902C0.527292 12.6237 0 13.1514 0 13.8025C0 14.4534 0.527221 14.9813 1.17902 14.9813H10.8307C11.4822 14.9813 12.0095 14.4534 12.0095 13.8025C12.0095 13.1514 11.4822 12.6237 10.8307 12.6237ZM26.9993 13.815C24.4667 13.815 22.4072 15.8751 22.4072 18.4078C22.4072 20.9399 24.4667 23 26.9993 23C29.5308 23 31.5915 20.9399 31.5915 18.4078C31.5915 15.8751 29.5308 13.815 26.9993 13.815ZM26.9993 20.6422C25.7664 20.6422 24.7647 19.6402 24.7647 18.4078C24.7647 17.1755 25.7664 16.1728 26.9993 16.1728C28.2323 16.1728 29.2337 17.1755 29.2337 18.4078C29.2338 19.6401 28.2323 20.6422 26.9993 20.6422Z" fill="white"/>
</svg>
