<svg width="23" height="25" viewBox="0 0 23 25" fill="none" xmlns="http://www.w3.org/2000/svg">
<path id="Vector" d="M22.0179 3.49888C21.973 3.17655 21.7411 2.9114 21.4275 2.82426L11.3795 0.0299022C11.2363 -0.00996738 11.085 -0.00996738 10.9416 0.0299022L0.89364 2.82426C0.58013 2.9114 0.348211 3.17644 0.303331 3.49888C0.245052 3.91795 -1.08448 13.8195 2.32568 18.7453C5.7318 23.6651 10.7566 24.9259 10.9688 24.9772C11.0318 24.9925 11.0961 25 11.1606 25C11.2251 25 11.2894 24.9924 11.3524 24.9772C11.5647 24.9259 16.5895 23.6651 19.9955 18.7453C23.4057 13.8196 22.0761 3.91805 22.0179 3.49888ZM17.6403 9.27953L10.7865 16.1333C10.627 16.2928 10.4179 16.3726 10.2088 16.3726C9.9998 16.3726 9.79065 16.2929 9.63117 16.1333L5.39356 11.8957C5.24029 11.7425 5.15423 11.5347 5.15423 11.318C5.15423 11.1013 5.2404 10.8935 5.39356 10.7403L6.23496 9.89892C6.55403 9.57996 7.07135 9.57986 7.39031 9.89892L10.2088 12.7175L15.6435 7.28267C15.7967 7.1294 16.0045 7.04335 16.2212 7.04335C16.4379 7.04335 16.6457 7.1294 16.7989 7.28267L17.6403 8.12407C17.9593 8.44314 17.9593 8.96046 17.6403 9.27953Z" fill="white"/>
</svg>
