<svg width="29" height="28" viewBox="0 0 29 28" fill="none" xmlns="http://www.w3.org/2000/svg">
<path id="Union" fill-rule="evenodd" clip-rule="evenodd" d="M8.99432 2.95672C11.0465 1.11924 13.7545 0 16.7194 0C23.1122 0 28.3128 5.20078 28.3127 11.5934C28.3127 16.9728 24.6299 21.5077 19.6533 22.8104C19.3019 22.16 18.8011 21.5913 18.1863 21.1576L18.1842 21.1562L18.1821 21.1547C17.7306 20.8373 17.2923 20.4992 16.8678 20.1444C21.5166 20.0646 25.2742 16.2608 25.2742 11.5934C25.2742 6.8763 21.4365 3.03867 16.7194 3.03867C13.8776 3.03867 11.3565 4.43271 9.79987 6.57162C9.76635 6.18045 9.74295 5.78866 9.73262 5.39698L9.73252 5.39444L9.73241 5.39191C9.70811 4.52265 9.44951 3.68053 8.99432 2.95672ZM13.1015 20.7839C14.284 21.8793 15.1103 22.5834 16.4348 23.6407C17.1007 24.1722 17.3993 25.0535 16.9881 25.7519C16.2212 27.1913 14.6376 28 12.8522 28C11.1598 28 9.28583 27.2728 7.75617 25.6667C4.02195 21.7379 1.41102 16.8689 0.204978 11.5844C-0.764256 7.31734 1.85589 3.82936 4.86518 3.82936C4.99027 3.82936 5.11637 3.83543 5.24258 3.84769C6.05178 3.89175 6.61636 4.62863 6.69486 5.47692C6.82888 6.92517 6.94855 7.79292 7.14218 9.19696L7.14229 9.19771L7.1423 9.19784C7.16991 9.39797 7.19901 9.609 7.22987 9.83417C7.34362 10.6636 6.97898 11.491 6.20391 11.7284L5.14879 12.0372C6.14355 15.434 7.83578 18.5899 10.1147 21.2981L10.9559 20.5902C11.2275 20.3673 11.5575 20.2608 11.8917 20.2608C12.3283 20.2608 12.7536 20.4616 13.1015 20.7839ZM13.233 11.8079C12.4316 12.5515 11.9072 13.1361 11.6303 13.595C11.4348 13.9186 11.2922 14.2607 11.2062 14.6119C11.1658 14.7772 11.2029 14.9488 11.3082 15.0828C11.4133 15.2166 11.5711 15.2934 11.7413 15.2934H15.5657C16.0343 15.2934 16.4156 14.9121 16.4156 14.4436C16.4156 13.975 16.0343 13.5937 15.5657 13.5937H13.8387C13.8527 13.5771 13.8672 13.5605 13.882 13.5438C13.9949 13.4168 14.2712 13.1514 14.7032 12.7553C15.1562 12.3395 15.4621 12.0281 15.6383 11.8034C15.9037 11.4655 16.1013 11.1356 16.2251 10.823C16.3514 10.5044 16.4156 10.1648 16.4156 9.81344C16.4156 9.18301 16.1873 8.6479 15.737 8.22269C15.2897 7.80093 14.674 7.58721 13.9066 7.58721C13.2094 7.58721 12.6171 7.76973 12.1465 8.12971C11.8626 8.34708 11.644 8.64821 11.4968 9.025C11.3973 9.27954 11.423 9.57075 11.5656 9.80381C11.7083 10.037 11.9558 10.1925 12.2278 10.2196C12.2581 10.2226 12.2882 10.2242 12.318 10.2242C12.7008 10.2242 13.0421 9.98076 13.1675 9.61856C13.2068 9.50501 13.2588 9.41476 13.3222 9.35014C13.4557 9.21411 13.6355 9.14787 13.872 9.14787C14.1123 9.14787 14.2919 9.21046 14.4208 9.3392C14.5493 9.46774 14.6118 9.65522 14.6118 9.9125C14.6118 10.1514 14.5264 10.4006 14.3581 10.6533C14.2678 10.7856 13.9981 11.095 13.233 11.8079ZM20.2506 7.58721H20.8894C21.1929 7.58721 21.44 7.83425 21.44 8.13781V12.2H21.5276C21.977 12.2 22.3427 12.5657 22.3427 13.0151C22.3427 13.4645 21.977 13.8301 21.5276 13.8301H21.44V14.4163C21.44 14.9 21.0465 15.2935 20.5628 15.2935C20.0792 15.2935 19.6857 14.9 19.6857 14.4163V13.8301H17.2603C16.9567 13.8301 16.7097 13.5831 16.7097 13.2795V12.5787C16.7097 12.4259 16.7553 12.2783 16.8415 12.1521L19.7959 7.82726C19.8986 7.67695 20.0685 7.58721 20.2506 7.58721ZM18.5971 12.2H19.6858V10.5816L18.5971 12.2Z" fill="white"/>
</svg>
